<?xml version="1.0" encoding="UTF-8"?>
<svg xmlns="http://www.w3.org/2000/svg" version="1.1" height="30"  viewBox="0 0 319 113.4">
  <!-- Generator: Adobe Illustrator 30.0.0, SVG Export Plug-In . SVG Version: 2.1.1 Build 123)  -->
  <defs>
    <style>
      .st0 {
        fill: #4a9442;
      }

      .st1 {
        fill: #6fc344;
      }
    </style>
  </defs>
  <g id="lev">
    <g>
      <path class="st0" d="M147.6,78.5l.9,1.2c2,6.2-5.1,7.7-1.9,13.9,5.4-6.2,5.8-18.5,17.5-14.4l.3,7.6c-6.2-1.3-8.4,2.1-9.6,7.5h9.9c1.8,0,5.5-5.5,6.5-7.2l-3.4-.3v-8.2h12.3c1.2,6.2-3,14.1-7,18.7s-4.8,4.2-8.4,4.6-22.4.5-23-.4c-1.5-4.9-4-9.4-2-14.6h-3.4v-8.2h11.3v-.2Z"/>
      <path class="st0" d="M255.4,78.5v15.7h3.4v7.5h-32.8v-7.5h21.9v-7.5h-21.9c.3-2.7-1-6.2,1-8.2h28.4Z"/>
      <path class="st0" d="M269.1,69.6c.4,3.4-.2,6-2.1,8.9h22.9l1,1v13c0,.3-1.8,4.1-2.2,4.7-2.7,4.2-6.8,5.1-11.5,4.6v-6.8c5.3,0,6.9-3.4,6.2-8.2h-22.9l-.9-1.2c-1-3.6,1-6,1.9-9.1h-2.7v-6.8h10.3Z"/>
      <path class="st0" d="M214.3,101.7h-7.5v-15.1h-24.6c.3-2.7-1-6.2,1-8.2h30.1l1,1v22.2h0Z"/>
      <path class="st0" d="M135,101.7h-7.5v-14l-1-1h-20.9v-8.2h25.7c.8,0,3.8,2.9,3.8,3.8v19.5h-.1Z"/>
      <path class="st0" d="M89.8,112h-7.5c.5-8.4-1.3-17.2,1.4-25.3h-3.4v-8.2h10.6c1.4,1.1,1.3,4.2,1,5.8s-2.1,2.6-2.1,2.7c0,0,0,25,0,25Z"/>
      <path class="st0" d="M103.5,78.5v23.3h-7.5v-15.1c-4.7,1.1-4.2-5.6-2.4-8.2h9.9Z"/>
      <rect class="st0" x="182.2" y="90.1" width="7.5" height="11.6"/>
    </g>
  </g>
  <g id="leaves">
    <g>
      <path class="st0" d="M274.6,42h-12.7c-3.6,0-10.6-5.6-10.6-9.2v-14h14.7c2.6,0,8.6,7,8.6,9.9v13.3Z"/>
      <path class="st1" d="M313,7.1v20.2c0,6.3-10,14.7-16.1,14.7h-17.8l-1-1v-17.8c0-6.3,8.3-16.1,14.7-16.1h20.2,0Z"/>
    </g>
  </g>
  <g id="tours">
    <g>
      <polygon class="st1" points="55.6 51.1 55.6 64.1 48.8 64.1 48.5 59.3 45.3 58.6 45.3 51.1 55.6 51.1"/>
      <polygon class="st1" points="262.9 51.1 262.9 64.1 255.4 64.1 255.4 58.6 252.7 58.6 252.7 51.1 262.9 51.1"/>
      <polygon class="st1" points="275.9 51.1 275.9 64.1 268.4 64.1 268.4 58.6 265 58.6 265 51.1 275.9 51.1"/>
      <path class="st1" d="M314.2,53.1c.2,7-.1,14.2,0,21.2h-6.8v-15.7h-4.8c-1-8.3,6.2-5.8,11.6-5.5Z"/>
      <polygon class="st1" points="218.4 51.1 218.4 74.4 210.9 74.4 210.9 58.6 207.5 58.6 207.5 51.1 218.4 51.1"/>
      <path class="st1" d="M250.6,74.4h-7.5v-14.7l-1-1h-20.9v-7.5h26.3c.3,0,3.1,3.3,3.1,3.8v19.5h0Z"/>
      <path class="st1" d="M87.8,74.4h-7.5v-14.7l-1-1h-21v-7.5h26.3c.7,0,3.1,2.4,3.1,3.1v20.2h.1Z"/>
      <path class="st1" d="M155.5,51.1v18.1c0,1.8-4,5.1-5.8,5.1h-25v-7.5h22.2c2-2,.7-5.5,1-8.2h-23.3v-7.5h30.9Z"/>
      <path class="st1" d="M302.6,58.6c-2.1,0-12.7-.4-13.4.6-1.3,5.3,3.1,9.4,1.8,15.1h-13v-7.5h4.8c-1-2.9-1-5.3,0-8.2h-3.4v-7.5h34.9v2.1c-5.5-.3-12.6-2.8-11.6,5.5h-.1Z"/>
      <path class="st1" d="M205.4,51.1v23.3h-6.8c.5-3.4-.6-6.6-.8-9.9s1.6-5.8-.3-5.8h-16.4c-.5,0-1.6,2.3-1.6,3.1,0,3.4,4.8,8.1,2,12.7h-13v-7.5h4.8c0-3-1.2-5.5.7-8.2h-3.4v-7.5h34.9v-.2Z"/>
      <path class="st1" d="M43.3,51.1v23.3h-7.5v-15.7h-16.8c0,0-1.2,1.1-1.4,1.4-1.5,3.1,1.9,6.1,2.3,8.7s-1,3.8-.5,5.7H6.4v-7.5h4.8c-.2-3.1-1.5-5.4.7-8.2h-3.4v-7.5h34.8v-.2Z"/>
      <path class="st1" d="M122,74.4h-32.2v-7.5h25.3c-.3-2.7,1-6.2-1-8.2h-13.3v5.5h-7.4c-1.6-2.7-.3-3.6,1.2-5.5h-4.8v-7.5h29.8c0,0,2.4,2.3,2.4,2.4v20.9h0Z"/>
    </g>
  </g>
</svg>