<svg id="Layer_1" data-name="Layer 1" xmlns="http://www.w3.org/2000/svg" viewBox="0 0 926.78 42.52"><defs><style>.cls-1{fill:#FFF;opacity:0.4;}.cls-2{fill:#aa4717;}</style></defs><rect class="cls-1" width="926.78" height="42.52"/><path class="cls-2" d="M15.64,11.93v6.68c0,.64,0,1.16,0,1.58s0,.81-.07,1.16a10,10,0,0,1-.14,1c-.06.33-.13.7-.23,1.09l-4.72-.68c0-.35.11-.68.15-1s.09-.6.13-.93.06-.7.08-1.11,0-.9,0-1.47V15.75h-4V11.93Z"/><path class="cls-2" d="M37.23,18.08a19.86,19.86,0,0,1-.55,2A9.31,9.31,0,0,1,36,21.6,7.6,7.6,0,0,1,35,22.9a10.12,10.12,0,0,1-1.3,1.18l3.88,4.46-3.07,2.75L25.38,20.72A4,4,0,0,0,25,21.89a11.49,11.49,0,0,0-.22,1.56c-.05.56-.08,1.14-.09,1.73s0,1.15,0,1.69v.7c0,.27,0,.57,0,.89s0,.64,0,1,0,.65,0,1H20.07c0-.33,0-.68,0-1.06s0-.81,0-1.27,0-1,0-1.55,0-1.2.06-1.9a17.62,17.62,0,0,1,.14-2,8.87,8.87,0,0,1,.41-1.76,7.91,7.91,0,0,1,.75-1.62,9.37,9.37,0,0,1,1.23-1.57c-.3-.39-.57-.77-.81-1.13a11.58,11.58,0,0,1-.67-1.13c-.21-.4-.41-.81-.6-1.25s-.4-.92-.61-1.45q1-.4,2.07-.81c.73-.27,1.42-.51,2.06-.72.26.66.51,1.24.74,1.76a15.48,15.48,0,0,0,.77,1.46,13,13,0,0,0,.93,1.39c.35.47.76,1,1.24,1.52l3.36,3.87a4.34,4.34,0,0,0,.77-.94,7.11,7.11,0,0,0,.61-1.34c.08-.2.15-.43.22-.67s.13-.51.19-.78l.46-2.1-2.57-.44.63-3.68L38,12.32v2.27Z"/><path class="cls-2" d="M46.65,6.8v5.13h10l.18.69c.05.2.1.38.13.54A4.82,4.82,0,0,1,57,14c0,.25,0,.54,0,.87v3.79a9.33,9.33,0,0,1-.84,3.92,14.54,14.54,0,0,1-2.49,3.69l-4.5,5-3.41-2.9,2-2.25c.84-1,1.55-1.74,2.12-2.36A17.61,17.61,0,0,0,51.3,22,5.86,5.86,0,0,0,52,20.52a5.64,5.64,0,0,0,.22-1.63V15.75H41.85V6.8Z"/><path class="cls-2" d="M67.09,15.75c-.59,0-1.12,0-1.58,0s-.9-.05-1.32-.1a12.72,12.72,0,0,1-1.29-.25c-.44-.11-.94-.27-1.5-.47L62,13c.19-.61.4-1.22.62-1.82.55.15,1,.27,1.43.36s.78.16,1.14.21a9.93,9.93,0,0,0,1.11.11c.37,0,.82,0,1.33,0h11l.16.58c0,.17.09.34.12.5a6.48,6.48,0,0,1,.14.87c0,.27,0,.58,0,.93v3.81A12.83,12.83,0,0,1,79,20.43,9.37,9.37,0,0,1,78.6,22,8.44,8.44,0,0,1,78,23.46a14.79,14.79,0,0,1-.87,1.43A17.32,17.32,0,0,1,76,26.36c-.44.57-.92,1.15-1.42,1.74s-1,1.18-1.52,1.74-.94,1.06-1.33,1.48l-3.41-2.9,2.37-2.69c.6-.67,1.1-1.24,1.5-1.73a15,15,0,0,0,1-1.34,6.53,6.53,0,0,0,.53-.93,4.54,4.54,0,0,0,.32-.87,6.65,6.65,0,0,0,.16-.91c0-.32,0-.67,0-1.06V15.75Zm-5.5,9.12c0-.5,0-1,0-1.38s0-.82.06-1.2.07-.77.13-1.15.14-.78.25-1.21c.78.08,1.57.19,2.35.31s1.57.28,2.36.48a15,15,0,0,0-.29,2c0,.66-.08,1.43-.08,2.29V35.75h-4.8Z"/><path class="cls-2" d="M95.2,11.93a9.35,9.35,0,0,1,2.18.25,4.62,4.62,0,0,1,1.93.93A4.72,4.72,0,0,1,100.68,15a7.63,7.63,0,0,1,.53,3.11V30.23H96.45v-11a12.17,12.17,0,0,0-.1-1.77,2,2,0,0,0-.43-1.07,1.67,1.67,0,0,0-1-.53,7.62,7.62,0,0,0-1.68-.14H89.72A13.22,13.22,0,0,0,89.38,18c0,.67,0,1.37,0,2.08V30.21H84.57v-10a16.78,16.78,0,0,1,.15-2.22,17.73,17.73,0,0,1,.46-2.33,11.59,11.59,0,0,1-1.25-.26c-.42-.11-.91-.26-1.46-.45.19-.63.38-1.25.58-1.87s.4-1.22.62-1.82c.6.17,1.11.29,1.54.39s.84.17,1.23.22.8.08,1.24.1H95.2Z"/><path class="cls-2" d="M111.53,15.75c-.6,0-1.12,0-1.58,0s-.9-.05-1.32-.1a12.72,12.72,0,0,1-1.29-.25c-.44-.11-.94-.27-1.5-.47.18-.63.37-1.25.57-1.87s.4-1.22.62-1.82c.6.17,1.11.29,1.54.39s.84.17,1.23.22.8.08,1.24.1h5.34a9.35,9.35,0,0,1,2.18.25,4.72,4.72,0,0,1,1.94.93A4.92,4.92,0,0,1,121.87,15a7.61,7.61,0,0,1,.52,3.07V30.21H117.6V19.26a13.78,13.78,0,0,0-.1-1.77,2.06,2.06,0,0,0-.43-1.07,1.7,1.7,0,0,0-1-.53,7.66,7.66,0,0,0-1.69-.14ZM106,24.87c0-.5,0-1,0-1.38s0-.82.06-1.2.07-.77.13-1.15.14-.78.25-1.21c.78.08,1.57.19,2.35.31s1.57.28,2.36.48a15,15,0,0,0-.29,2c0,.66-.08,1.43-.08,2.29v5.22H106Z"/><path class="cls-2" d="M145,11.93V35.75h-4.8v-20h-3.61V11.93Z"/><path class="cls-2" d="M157.55,11.93V30.21h-4.8V15.75h-3.07V11.93Z"/><path class="cls-2" d="M168.26,15.75q-.9,0-1.59,0c-.45,0-.89-.05-1.32-.1a12.72,12.72,0,0,1-1.29-.25c-.44-.11-.94-.27-1.5-.47l.57-1.87c.19-.61.4-1.22.63-1.82.59.17,1.11.29,1.53.39s.84.17,1.23.22.81.08,1.24.1h3.15a8.07,8.07,0,0,1,2.12.28,4.87,4.87,0,0,1,1.89,1,5.24,5.24,0,0,1,1.39,1.9,8.28,8.28,0,0,1,.65,3.06c0,.65,0,1.31.07,2s0,1.32,0,2,0,1.43,0,2.19v2.44c0,.28,0,.54,0,.77a6.87,6.87,0,0,1-.07.73,8.55,8.55,0,0,1-.15.85c-.06.31-.15.69-.25,1.13H161.24V26.42h11.09c0-.55,0-1.13,0-1.73s0-1.22,0-1.83,0-1.23,0-1.84,0-1.19,0-1.76a12.17,12.17,0,0,0-.1-1.77,1.91,1.91,0,0,0-.43-1.07,1.67,1.67,0,0,0-1-.53,7.78,7.78,0,0,0-1.69-.14Z"/><path class="cls-2" d="M189.86,11.93v6.68c0,.64,0,1.16,0,1.58s0,.81-.07,1.16a10,10,0,0,1-.14,1c-.06.33-.13.7-.23,1.09l-4.73-.68c.06-.35.11-.68.16-1s.09-.6.12-.93.07-.7.08-1.11,0-.9,0-1.47V15.75h-4V11.93Z"/><path class="cls-2" d="M194,13.3c.62-.41,1.23-.8,1.84-1.17l1.9-1.11q.42.56.72,1c.2.29.38.56.53.81a6.15,6.15,0,0,1,.4.76c.12.25.24.51.36.8a10.06,10.06,0,0,1,3.11-2.22,7.93,7.93,0,0,1,3.21-.72,6.88,6.88,0,0,1,2.13.33,6.35,6.35,0,0,1,1.84,1,5.81,5.81,0,0,1,1.39,1.56,6.3,6.3,0,0,1,.81,2.1,13.18,13.18,0,0,1,.24,2.15c0,.8,0,1.68,0,2.63,0,.44,0,.91,0,1.4s0,1.09,0,1.78,0,1.58,0,2.32-.06,1.35-.1,1.85c0,.25,0,.52-.07.8s-.06.58-.1.88H203V26.4h4.69c0-.07,0-.2,0-.38s0-.45,0-.81,0-.81,0-1.38V21.74c0-.23,0-.52,0-.87s0-.7,0-1.08,0-.73,0-1.07,0-.62-.05-.85a3.3,3.3,0,0,0-.84-2,2.68,2.68,0,0,0-1.87-.6,3.7,3.7,0,0,0-1.33.26,6.58,6.58,0,0,0-1.39.75,6.42,6.42,0,0,0-.78.62,8,8,0,0,0-.75.78q-.3,1.95-.51,3.36l-.37,2.46c-.1.7-.2,1.32-.28,1.86l-.24,1.56c-.07.51-.15,1-.24,1.58s-.17,1.18-.28,1.89H194l.46-3.09c.1-.75.21-1.46.32-2.14s.21-1.34.31-2l.33-2c.11-.68.23-1.41.36-2.18,0-.21,0-.41.05-.58s0-.35,0-.51a5.71,5.71,0,0,0-.07-.88,4.61,4.61,0,0,0-.21-.75,6.88,6.88,0,0,0-.35-.73l-.46-.82Z"/><path class="cls-2" d="M222.52,15.75c-.6,0-1.13,0-1.58,0s-.9-.05-1.32-.1a12.72,12.72,0,0,1-1.29-.25c-.44-.11-.94-.27-1.51-.47l.57-1.87c.2-.61.41-1.22.63-1.82.6.17,1.11.29,1.54.39s.83.17,1.23.22.8.08,1.24.1h5.34a9.35,9.35,0,0,1,2.18.25,4.63,4.63,0,0,1,3.3,2.78,7.42,7.42,0,0,1,.53,3.07V30.21h-4.8V19.26a14.05,14.05,0,0,0-.09-1.77,2.06,2.06,0,0,0-.43-1.07,1.73,1.73,0,0,0-1-.53,7.72,7.72,0,0,0-1.69-.14ZM217,24.87c0-.5,0-1,0-1.38s0-.82.06-1.2.07-.77.13-1.15.14-.78.25-1.21c.78.08,1.57.19,2.35.31s1.57.28,2.36.48a15,15,0,0,0-.29,2c-.06.66-.08,1.43-.08,2.29v5.22H217Z"/><path class="cls-2" d="M245.85,11.93V30.21h-4.8V15.75H238V11.93Z"/><path class="cls-2" d="M265.48,15.75c-.6,0-1.13,0-1.58,0s-.9-.05-1.32-.1a12.72,12.72,0,0,1-1.29-.25c-.44-.11-.94-.27-1.51-.47.19-.63.38-1.25.58-1.87s.4-1.22.62-1.82c.6.17,1.11.29,1.54.39s.84.17,1.23.22.8.08,1.24.1h3.71a9.47,9.47,0,0,1,2.18.25,4.68,4.68,0,0,1,1.93.93A4.82,4.82,0,0,1,274.18,15a7.59,7.59,0,0,1,.53,3.07V30.21h-4.8V19.26a12.17,12.17,0,0,0-.1-1.77,2,2,0,0,0-.43-1.07,1.67,1.67,0,0,0-1-.53,7.78,7.78,0,0,0-1.69-.14Z"/><path class="cls-2" d="M287,11.93V30.21h-4.8V15.75h-3.08V11.93Z"/><path class="cls-2" d="M299,17.84c.28-1,.61-2.1,1-3.21s.75-2.17,1.12-3.19q1,.09,2.19.24l2.42.33c.83.12,1.65.26,2.47.41s1.6.32,2.32.48a13.58,13.58,0,0,1,.35,2q.09,1.05.09,2.34a17.73,17.73,0,0,1-.68,5A11.67,11.67,0,0,1,308,26.47a10.59,10.59,0,0,1-2.21,2,12,12,0,0,1-2.53,1.33,14.17,14.17,0,0,1-2.74.72,19.3,19.3,0,0,1-2.84.22c-.7,0-1.41,0-2.12-.1a20.8,20.8,0,0,1-2.1-.29l-.79-10.55c-.05-.61-.08-1.14-.11-1.61s-.06-.87-.09-1.23-.07-.71-.12-1a7.62,7.62,0,0,0-.18-.93c-.08-.31-.17-.63-.29-1s-.26-.74-.44-1.18c.69-.27,1.39-.56,2.1-.86a21.12,21.12,0,0,1,2.12-.79,15,15,0,0,1,.74,1.87,13.21,13.21,0,0,1,.4,1.71,17,17,0,0,1,.21,1.83c.05.65.1,1.38.16,2.22l.6,8.06a1,1,0,0,0,.23,0h.19a8.27,8.27,0,0,0,2.36-.24,6.88,6.88,0,0,0,2-.85,6.64,6.64,0,0,0,1.67-1.47,8.29,8.29,0,0,0,1.2-2.11,10.71,10.71,0,0,0,.62-2.3,17,17,0,0,0,.17-2.34v-.87c0-.32,0-.58,0-.8-.45-.12-.88-.22-1.28-.29l-1.37-.21c-.24.64-.44,1.23-.62,1.77s-.37,1.1-.56,1.68Z"/><path class="cls-2" d="M320.39,15.75c-.59,0-1.12,0-1.58,0s-.89-.05-1.32-.1a12.72,12.72,0,0,1-1.29-.25c-.44-.11-.94-.27-1.5-.47l.57-1.87c.19-.61.4-1.22.62-1.82.55.15,1,.27,1.43.36s.78.16,1.14.21a9.93,9.93,0,0,0,1.11.11c.37,0,.82,0,1.33,0h11l.16.58c0,.17.09.34.12.5a6.48,6.48,0,0,1,.14.87c0,.27,0,.58,0,.93v3.81a12.83,12.83,0,0,1-.12,1.82A9.37,9.37,0,0,1,331.9,22a7.72,7.72,0,0,1-.62,1.45,14.79,14.79,0,0,1-.87,1.43,17.32,17.32,0,0,1-1.07,1.47c-.44.57-.92,1.15-1.42,1.74s-1,1.18-1.51,1.74-1,1.06-1.34,1.48l-3.41-2.9L324,25.73c.6-.67,1.1-1.24,1.51-1.73s.74-.93,1-1.34a6.53,6.53,0,0,0,.53-.93,4.54,4.54,0,0,0,.32-.87,6.65,6.65,0,0,0,.16-.91c0-.32,0-.67,0-1.06V15.75Zm-5.5,9.12c0-.5,0-1,0-1.38s0-.82.06-1.2.07-.77.13-1.15.14-.78.25-1.21c.78.08,1.57.19,2.35.31s1.57.28,2.36.48a15,15,0,0,0-.29,2c0,.66-.08,1.43-.08,2.29V35.75h-4.8Z"/><path class="cls-2" d="M341.49,15.75c-.6,0-1.13,0-1.58,0s-.9-.05-1.32-.1a12.2,12.2,0,0,1-1.29-.25c-.44-.11-.95-.27-1.51-.47l.57-1.87c.2-.61.4-1.22.63-1.82.6.17,1.11.29,1.54.39s.83.17,1.23.22.8.08,1.24.1h3.7a9.35,9.35,0,0,1,2.18.25,4.72,4.72,0,0,1,1.94.93A4.82,4.82,0,0,1,350.19,15a7.59,7.59,0,0,1,.53,3.07V30.21h-4.8V19.26a12.17,12.17,0,0,0-.1-1.77,2,2,0,0,0-.43-1.07,1.67,1.67,0,0,0-1-.53,7.62,7.62,0,0,0-1.68-.14Z"/><path class="cls-2" d="M362.32,17.84c.28-1,.6-2.1,1-3.21s.74-2.17,1.12-3.19q1,.09,2.19.24L369,12c.83.12,1.65.26,2.47.41s1.6.32,2.32.48a13.58,13.58,0,0,1,.35,2q.09,1.05.09,2.34a18.09,18.09,0,0,1-.68,5,11.67,11.67,0,0,1-2.18,4.16,10.85,10.85,0,0,1-2.21,2,12,12,0,0,1-2.53,1.33,14.17,14.17,0,0,1-2.74.72,19.3,19.3,0,0,1-2.84.22c-.7,0-1.41,0-2.12-.1a20.8,20.8,0,0,1-2.1-.29l-.79-10.55c-.05-.61-.09-1.14-.11-1.61s-.06-.87-.09-1.23-.07-.71-.12-1a7.62,7.62,0,0,0-.18-.93c-.08-.31-.17-.63-.29-1s-.26-.74-.44-1.18c.69-.27,1.39-.56,2.1-.86a21.12,21.12,0,0,1,2.12-.79,16.73,16.73,0,0,1,.74,1.87,13.21,13.21,0,0,1,.4,1.71q.13.87.21,1.83c.05.65.1,1.38.16,2.22l.6,8.06a1,1,0,0,0,.23,0h.19a8.16,8.16,0,0,0,2.35-.24,6.83,6.83,0,0,0,2-.85,6.64,6.64,0,0,0,1.67-1.47,8.29,8.29,0,0,0,1.2-2.11,10.14,10.14,0,0,0,.61-2.3,15.57,15.57,0,0,0,.18-2.34v-.87c0-.32,0-.58,0-.8-.45-.12-.88-.22-1.28-.29L367,15.48c-.24.64-.44,1.23-.63,1.77l-.55,1.68Z"/><path class="cls-2" d="M383.87,15.75c-.6,0-1.13,0-1.58,0s-.9-.05-1.32-.1a12.72,12.72,0,0,1-1.29-.25c-.44-.11-.94-.27-1.51-.47l.57-1.87c.2-.61.41-1.22.63-1.82.6.17,1.11.29,1.54.39s.83.17,1.23.22.8.08,1.24.1h5.34a9.41,9.41,0,0,1,2.18.25A4.63,4.63,0,0,1,394.2,15a7.42,7.42,0,0,1,.53,3.07V30.21h-4.8V19.26a14.05,14.05,0,0,0-.09-1.77,2.06,2.06,0,0,0-.43-1.07,1.73,1.73,0,0,0-1-.53,7.72,7.72,0,0,0-1.69-.14Zm-5.52,9.12c0-.5,0-1,0-1.38s0-.82.06-1.2.07-.77.13-1.15.14-.78.25-1.21c.78.08,1.57.19,2.35.31s1.57.28,2.36.48a15,15,0,0,0-.29,2c-.06.66-.08,1.43-.08,2.29v5.22h-4.8Z"/><path class="cls-2" d="M421.68,11.93a9.41,9.41,0,0,1,2.18.25,4.68,4.68,0,0,1,1.93.93A4.82,4.82,0,0,1,427.16,15a7.59,7.59,0,0,1,.53,3.07V30.21h-4.8V19.26a14.05,14.05,0,0,0-.09-1.77,2,2,0,0,0-.44-1.07,1.67,1.67,0,0,0-1-.53,7.72,7.72,0,0,0-1.69-.14h-2.65a9.38,9.38,0,0,0-.81,2.6,16.93,16.93,0,0,0-.23,2.72c0,.52,0,1,0,1.45s.07.9.14,1.33.14.86.24,1.29.22.87.36,1.33l.34,1c-.05.49-.11,1-.17,1.41s-.14.88-.24,1.29h-8.63V26.4h4a18.9,18.9,0,0,1-.68-2.6,13.82,13.82,0,0,1-.23-2.46,16,16,0,0,1,.12-1.95,14.15,14.15,0,0,1,.42-2q.15-.47.3-.9a7,7,0,0,1,.34-.86,12.66,12.66,0,0,1-1.52-.24,13.32,13.32,0,0,1-1.73-.52c.18-.63.37-1.25.57-1.87s.4-1.22.62-1.82c.6.17,1.11.29,1.54.39s.84.17,1.23.22.81.08,1.24.1h7.33Z"/><path class="cls-2" d="M440,11.93V30.21h-4.8V15.75H432.1V11.93Z"/><path class="cls-2" d="M449.94,15.75c-.59,0-1.12,0-1.58,0s-.89-.05-1.32-.1a12.72,12.72,0,0,1-1.29-.25c-.44-.11-.94-.27-1.5-.47l.57-1.87c.19-.61.4-1.22.62-1.82.6.17,1.12.29,1.54.39s.84.17,1.23.22.81.08,1.24.1h11.73v3.82h-3.55V30.21h-4.8V15.75Z"/><path class="cls-2" d="M469.05,6.8v5.13h10l.18.69a5.18,5.18,0,0,1,.13.54,4.82,4.82,0,0,1,.11.79c0,.25,0,.54,0,.87v3.79a9.33,9.33,0,0,1-.84,3.92,14.48,14.48,0,0,1-2.48,3.69l-4.5,5-3.41-2.9,2-2.25c.85-1,1.55-1.74,2.12-2.36A16.2,16.2,0,0,0,473.7,22a5.53,5.53,0,0,0,.74-1.45,5.31,5.31,0,0,0,.22-1.63V15.75H464.25V6.8Z"/><path class="cls-2" d="M491.74,11.93V30.21H487V15.75h-3.08V11.93Z"/><path class="cls-2" d="M508.85,11.93a9.41,9.41,0,0,1,2.18.25,4.68,4.68,0,0,1,1.93.93A4.82,4.82,0,0,1,514.33,15a7.59,7.59,0,0,1,.53,3.07V30.21h-4.8V19.26a12.17,12.17,0,0,0-.1-1.77,1.91,1.91,0,0,0-.43-1.07,1.67,1.67,0,0,0-1-.53,7.78,7.78,0,0,0-1.69-.14h-2.66a9.71,9.71,0,0,0-.8,2.6,15.86,15.86,0,0,0-.23,2.72c0,.52,0,1,0,1.45s.07.9.13,1.33.15.86.25,1.29.22.87.36,1.33l.34,1c-.05.49-.11,1-.17,1.41s-.15.88-.24,1.29h-8.63V26.4h4a18.9,18.9,0,0,1-.68-2.6,13.82,13.82,0,0,1-.23-2.46,16,16,0,0,1,.12-1.95,11.75,11.75,0,0,1,.42-2c.1-.31.19-.61.29-.9a9.11,9.11,0,0,1,.35-.86,12.35,12.35,0,0,1-1.52-.24,13.89,13.89,0,0,1-1.74-.52c.19-.63.38-1.25.58-1.87s.4-1.22.62-1.82c.6.17,1.11.29,1.54.39s.84.17,1.23.22.8.08,1.24.1h7.33Z"/><path class="cls-2" d="M523.53,6.8v5.13h10c.07.26.13.49.19.69l.13.54a4.74,4.74,0,0,1,.1.79c0,.25,0,.54,0,.87v3.79a9.48,9.48,0,0,1-.83,3.92,14.8,14.8,0,0,1-2.49,3.69l-4.5,5-3.41-2.9,2-2.25c.84-1,1.55-1.74,2.11-2.36a17.88,17.88,0,0,0,1.38-1.7,5.48,5.48,0,0,0,.73-1.45,5.31,5.31,0,0,0,.22-1.63V15.75h-10.4V6.8Z"/><path class="cls-2" d="M556.38,11.93V35.75h-4.8v-20H548V11.93Z"/><path class="cls-2" d="M568.91,11.93V30.21h-4.8V15.75H561V11.93Z"/><path class="cls-2" d="M578.53,15.75c-.6,0-1.13,0-1.58,0s-.9-.05-1.32-.1a12.2,12.2,0,0,1-1.29-.25c-.44-.11-1-.27-1.51-.47L573.4,13c.2-.61.41-1.22.63-1.82.6.17,1.11.29,1.54.39s.83.17,1.23.22.8.08,1.24.1h3.7a9.35,9.35,0,0,1,2.18.25,4.72,4.72,0,0,1,1.94.93A4.82,4.82,0,0,1,587.23,15a7.59,7.59,0,0,1,.53,3.07V30.21H583V19.26a12.17,12.17,0,0,0-.1-1.77,2,2,0,0,0-.43-1.07,1.67,1.67,0,0,0-1-.53,7.62,7.62,0,0,0-1.68-.14Z"/><path class="cls-2" d="M597.71,26.66c.23,0,.47,0,.71.06h.78a12.43,12.43,0,0,0,2.15-.19,8.8,8.8,0,0,0,2.17-.67,8.21,8.21,0,0,0,2-1.28,7.22,7.22,0,0,0,1.63-2.06,12.06,12.06,0,0,0,1.38-3.62,19,19,0,0,0,.38-3.76c0-.5,0-1,0-1.49s-.08-1-.14-1.5c.5-.13.93-.24,1.3-.32s.71-.17,1.05-.23.71-.13,1.09-.19l1.41-.19a9.94,9.94,0,0,1,.24,1.64c0,.59.07,1.2.07,1.82s0,1.14-.06,1.69-.09,1.06-.15,1.53q-.87,6.51-4.69,9.68t-10.56,3.19q-1.17,0-2.4-.09c-.83-.06-1.7-.14-2.61-.25l-.79-10.6c0-.61-.09-1.14-.12-1.61s-.06-.87-.09-1.23-.06-.71-.11-1-.11-.62-.19-.93a8.69,8.69,0,0,0-.29-1c-.11-.34-.26-.74-.44-1.18.7-.27,1.4-.56,2.11-.86a20.09,20.09,0,0,1,2.11-.79,13.59,13.59,0,0,1,.74,1.87,13.26,13.26,0,0,1,.41,1.71q.13.87.21,1.83c0,.65.1,1.38.16,2.22Zm1.7-8.73c.18-.5.33-.91.45-1.26l.31-.92a4.89,4.89,0,0,0,.17-.77,4.62,4.62,0,0,0,0-.76V14c0-.09,0-.19,0-.29a4.28,4.28,0,0,0,0-.6c0-.21-.06-.45-.11-.72.77-.24,1.54-.44,2.29-.61l2.3-.5a12.91,12.91,0,0,1,.33,1.43,7.85,7.85,0,0,1,.11,1.26,7.26,7.26,0,0,1-.08,1,11.05,11.05,0,0,1-.24,1.1c-.11.38-.24.8-.4,1.26s-.34,1-.55,1.53L602.8,22l-1.24-.33-.95-.3-.93-.36c-.32-.14-.71-.31-1.17-.54Z"/><path class="cls-2" d="M623.51,15.75c-.6,0-1.12,0-1.58,0s-.9-.05-1.32-.1a12.72,12.72,0,0,1-1.29-.25c-.44-.11-.94-.27-1.51-.47.19-.63.38-1.25.58-1.87s.4-1.22.62-1.82c.6.17,1.11.29,1.54.39s.84.17,1.23.22.8.08,1.24.1h5.34a9.35,9.35,0,0,1,2.18.25,4.62,4.62,0,0,1,1.93.93A4.84,4.84,0,0,1,633.85,15a7.61,7.61,0,0,1,.52,3.07V30.21h-4.8V19.26a14.05,14.05,0,0,0-.09-1.77,2.06,2.06,0,0,0-.43-1.07,1.73,1.73,0,0,0-1-.53,7.66,7.66,0,0,0-1.69-.14ZM618,24.87c0-.5,0-1,0-1.38s0-.82.06-1.2.07-.77.13-1.15.14-.78.25-1.21c.78.08,1.57.19,2.35.31s1.57.28,2.36.48a15,15,0,0,0-.29,2c0,.66-.08,1.43-.08,2.29v5.22H618Z"/><path class="cls-2" d="M658.28,19.26a12.17,12.17,0,0,0-.1-1.77,2,2,0,0,0-.43-1.07,1.67,1.67,0,0,0-1-.53,7.78,7.78,0,0,0-1.69-.14c-.6,0-1.13,0-1.58,0s-.9-.05-1.32-.1a12.72,12.72,0,0,1-1.29-.25c-.44-.11-.94-.27-1.51-.47L650,13c.2-.61.41-1.22.63-1.82.6.17,1.11.29,1.54.39s.83.17,1.23.22.8.08,1.24.1h2.46a9.41,9.41,0,0,1,2.18.25,4.68,4.68,0,0,1,1.93.93A4.82,4.82,0,0,1,662.55,15a7.59,7.59,0,0,1,.53,3.07V26.4h3.23v3.81H648.08V26.4h10.2Z"/><path class="cls-2" d="M673.57,6.8v5.13h10l.18.69c.06.2.1.38.14.54a6.09,6.09,0,0,1,.1.79c0,.25,0,.54,0,.87v3.79a9.33,9.33,0,0,1-.84,3.92,14.48,14.48,0,0,1-2.48,3.69l-4.5,5-3.41-2.9,2-2.25c.85-1,1.55-1.74,2.12-2.36a16.2,16.2,0,0,0,1.37-1.7,5.53,5.53,0,0,0,.74-1.45,5.31,5.31,0,0,0,.22-1.63V15.75H668.77V6.8Z"/><path class="cls-2" d="M705.56,33.89a16.89,16.89,0,0,1-2.73-2.62A16.57,16.57,0,0,1,700.75,28a18,18,0,0,1-1.34-3.8,19.72,19.72,0,0,1,0-8.56,17.79,17.79,0,0,1,1.34-3.8,16,16,0,0,1,2.08-3.24A16.48,16.48,0,0,1,705.56,6l2.33,1A32.87,32.87,0,0,0,706,10a18.15,18.15,0,0,0-1.33,3,17.4,17.4,0,0,0-.77,3.22,25.63,25.63,0,0,0-.25,3.79,25.72,25.72,0,0,0,.25,3.79,17.11,17.11,0,0,0,.77,3.21,18.25,18.25,0,0,0,1.33,3,34.28,34.28,0,0,0,1.91,3Z"/><path class="cls-2" d="M721.28,11.93v6.68c0,.64,0,1.16,0,1.58s0,.81-.07,1.16a10,10,0,0,1-.14,1c-.06.33-.13.7-.23,1.09l-4.73-.68c.06-.35.12-.68.16-1s.09-.6.13-.93.06-.7.07-1.11,0-.9,0-1.47V15.75h-4V11.93Z"/><path class="cls-2" d="M732.92,17.84c.28-1,.6-2.1,1-3.21s.74-2.17,1.12-3.19q1,.09,2.19.24l2.42.33c.83.12,1.65.26,2.47.41s1.6.32,2.32.48a13.58,13.58,0,0,1,.35,2q.09,1.05.09,2.34a18.09,18.09,0,0,1-.68,5A11.67,11.67,0,0,1,742,26.47a10.85,10.85,0,0,1-2.21,2,12.25,12.25,0,0,1-2.53,1.33,14.36,14.36,0,0,1-2.74.72,19.4,19.4,0,0,1-2.84.22c-.7,0-1.41,0-2.12-.1a20.8,20.8,0,0,1-2.1-.29l-.79-10.55c0-.61-.09-1.14-.12-1.61s0-.87-.08-1.23-.07-.71-.12-1-.11-.62-.18-.93-.18-.63-.29-1-.27-.74-.44-1.18c.69-.27,1.39-.56,2.1-.86a20.24,20.24,0,0,1,2.12-.79,16.73,16.73,0,0,1,.74,1.87,13.21,13.21,0,0,1,.4,1.71q.13.87.21,1.83c0,.65.1,1.38.16,2.22l.6,8.06a1,1,0,0,0,.22,0h.2a8.16,8.16,0,0,0,2.35-.24,6.83,6.83,0,0,0,2-.85,6.6,6.6,0,0,0,1.66-1.47,8,8,0,0,0,1.21-2.11,10.14,10.14,0,0,0,.61-2.3,15.57,15.57,0,0,0,.18-2.34v-.87c0-.32,0-.58,0-.8-.46-.12-.88-.22-1.28-.29l-1.37-.21q-.36,1-.63,1.77l-.55,1.68Z"/><path class="cls-2" d="M753.59,15.75c-.6,0-1.13,0-1.58,0s-.9-.05-1.32-.1a12.72,12.72,0,0,1-1.29-.25c-.44-.11-.94-.27-1.51-.47l.57-1.87c.2-.61.41-1.22.63-1.82.6.17,1.11.29,1.54.39s.83.17,1.23.22.8.08,1.24.1h3.71a9.32,9.32,0,0,1,2.17.25,4.72,4.72,0,0,1,1.94.93A4.82,4.82,0,0,1,762.29,15a7.59,7.59,0,0,1,.53,3.07V30.21H758V19.26a12.17,12.17,0,0,0-.1-1.77,2,2,0,0,0-.43-1.07,1.67,1.67,0,0,0-1-.53,7.62,7.62,0,0,0-1.68-.14Z"/><path class="cls-2" d="M771.1,10.84l2.91.72c.84.21,1.62.42,2.31.62s1.33.39,1.92.59,1.17.39,1.73.6a5.85,5.85,0,0,1,1.51.85,4.06,4.06,0,0,1,1,1.12,4.58,4.58,0,0,1,.51,1.43,9,9,0,0,1,.15,1.7v7.05c0,.31,0,.59,0,.84s-.05.54-.1.85-.14.76-.25,1.22-.24,1.06-.42,1.78h-15.8V26.4h12V19.14c0-.41,0-.76,0-1.05a2.16,2.16,0,0,0-.2-.73,1.4,1.4,0,0,0-.47-.53,3,3,0,0,0-.83-.41c-.46-.17-1-.34-1.51-.51s-1.18-.37-1.89-.57l-1.65,3.43,2.3,1.37-2.12,3.48-5.59-3.32Z"/><path class="cls-2" d="M790.34,6a16.48,16.48,0,0,1,2.73,2.62,15.62,15.62,0,0,1,2.09,3.24,18.36,18.36,0,0,1,1.34,3.8,19.72,19.72,0,0,1,0,8.56,18.57,18.57,0,0,1-1.34,3.8,16.16,16.16,0,0,1-2.09,3.24,16.89,16.89,0,0,1-2.73,2.62l-2.32-1a34.28,34.28,0,0,0,1.91-3,19.14,19.14,0,0,0,1.33-3,17.11,17.11,0,0,0,.77-3.21,25.72,25.72,0,0,0,.25-3.79,25.63,25.63,0,0,0-.25-3.79,17.4,17.4,0,0,0-.77-3.22,19,19,0,0,0-1.33-3A32.87,32.87,0,0,0,788,7Z"/><path class="cls-2" d="M820.12,11.93V35.75h-4.8v-20h-3.6V11.93Z"/><path class="cls-2" d="M832.65,11.93V30.21h-4.79V15.75h-3.08V11.93Z"/><path class="cls-2" d="M854.56,18.08a19.86,19.86,0,0,1-.55,2,9.31,9.31,0,0,1-.7,1.56,7.6,7.6,0,0,1-.95,1.3,10.12,10.12,0,0,1-1.3,1.18l3.88,4.46-3.07,2.75-9.16-10.57a4,4,0,0,0-.41,1.17,11.49,11.49,0,0,0-.22,1.56c-.05.56-.08,1.14-.09,1.73s0,1.15,0,1.69c0,.19,0,.42,0,.7s0,.57,0,.89,0,.64,0,1,0,.65,0,1H837.4c0-.33,0-.68,0-1.06s0-.81,0-1.27,0-1,0-1.55,0-1.2.06-1.9a17.62,17.62,0,0,1,.14-2,8.87,8.87,0,0,1,.41-1.76,7.91,7.91,0,0,1,.75-1.62,9.37,9.37,0,0,1,1.23-1.57c-.3-.39-.57-.77-.81-1.13a9.88,9.88,0,0,1-.67-1.13c-.21-.4-.41-.81-.6-1.25s-.4-.92-.61-1.45q1-.4,2.07-.81c.73-.27,1.42-.51,2.06-.72.26.66.51,1.24.74,1.76a15.48,15.48,0,0,0,.77,1.46,13,13,0,0,0,.93,1.39c.34.47.76,1,1.24,1.52l3.36,3.87a4.34,4.34,0,0,0,.77-.94,7.81,7.81,0,0,0,.61-1.34c.07-.2.14-.43.21-.67s.14-.51.2-.78l.46-2.1-2.57-.44.63-3.68,6.49,1.11v2.27Z"/><path class="cls-2" d="M868,11.93v6.68c0,.64,0,1.16,0,1.58s0,.81-.07,1.16-.09.7-.14,1-.14.7-.23,1.09l-4.73-.68c.06-.35.11-.68.16-1s.08-.6.12-.93.06-.7.08-1.11,0-.9,0-1.47V15.75h-4V11.93Z"/><path class="cls-2" d="M885.13,15.75H880.8l2.29,14.46h-4.87L876,15.73l-1.12-.05a9.09,9.09,0,0,1-1-.14c-.34-.06-.69-.14-1.07-.24s-.79-.23-1.25-.4l.57-1.87c.2-.61.4-1.22.63-1.82.6.17,1.11.29,1.54.39s.83.17,1.23.22.8.08,1.24.1h8.42Z"/><path class="cls-2" d="M896.78,11.93V30.21H892V15.75H888.9V11.93Z"/><path class="cls-2" d="M901.24,13.3c.63-.41,1.24-.8,1.85-1.17s1.24-.74,1.9-1.11q.42.56.72,1c.2.29.37.56.53.81a7.88,7.88,0,0,1,.4.76c.12.25.24.51.35.8a10.18,10.18,0,0,1,3.11-2.22,8,8,0,0,1,3.22-.72,6.88,6.88,0,0,1,2.13.33,6.17,6.17,0,0,1,1.83,1,5.65,5.65,0,0,1,1.39,1.56,6.31,6.31,0,0,1,.82,2.1,13.18,13.18,0,0,1,.24,2.15c0,.8,0,1.68,0,2.63,0,.44,0,.91,0,1.4s0,1.09,0,1.78,0,1.58,0,2.32-.07,1.35-.1,1.85c0,.25,0,.52-.07.8s-.06.58-.11.88h-9.23V26.4h4.7a2.92,2.92,0,0,0,0-.38c0-.18,0-.45,0-.81s0-.81,0-1.38V21.74c0-.23,0-.52,0-.87s0-.7,0-1.08,0-.73,0-1.07,0-.62,0-.85a3.25,3.25,0,0,0-.85-2,2.63,2.63,0,0,0-1.86-.6,3.79,3.79,0,0,0-1.34.26,6.77,6.77,0,0,0-1.38.75,7.39,7.39,0,0,0-.79.62,7.94,7.94,0,0,0-.74.78q-.3,1.95-.51,3.36l-.37,2.46c-.11.7-.2,1.32-.28,1.86s-.16,1.05-.24,1.56-.16,1-.24,1.58-.17,1.18-.28,1.89h-4.78l.46-3.09c.1-.75.21-1.46.31-2.14s.21-1.34.32-2,.21-1.34.32-2,.24-1.41.37-2.18c0-.21,0-.41.05-.58s0-.35,0-.51a5.71,5.71,0,0,0-.07-.88,3.81,3.81,0,0,0-.22-.75,5.26,5.26,0,0,0-.34-.73l-.46-.82Z"/></svg>