<svg id="Layer_1" data-name="Layer 1" xmlns="http://www.w3.org/2000/svg" viewBox="0 0 741.07 34.65">
  <defs>
    <style>
      .cls-1 {
        fill: #fff;
        opacity: 0.4;
      }

      .cls-2 {
        fill: #aa4717;
      }
    </style>
  </defs>
  <rect class="cls-1" width="741.07" height="34.65"/>
  <g>
    <path class="cls-2" d="M28.67,22.35v-.88l1.1-.1.31-.28v-9.6l-.26-.25-1.15-.09v-.88h5.18v.88l-1.09.09-.29.25V21.3h3.46l.23-.29.27-2.19h1.34v3.53Z"/>
    <path class="cls-2" d="M47.16,20.11v1.34a8.05,8.05,0,0,1-1.86.79,6.85,6.85,0,0,1-1.89.27,4.35,4.35,0,0,1-3.23-1.24A4.49,4.49,0,0,1,39,18a4.65,4.65,0,0,1,1.25-3.35,4.26,4.26,0,0,1,3.2-1.29,3.59,3.59,0,0,1,2.77,1.06,4.33,4.33,0,0,1,1,3v.34h-5.9v0A3.52,3.52,0,0,0,42,20.23a2.69,2.69,0,0,0,2.13.88,4.43,4.43,0,0,0,1.45-.25A6.79,6.79,0,0,0,47.16,20.11ZM44.79,16.8v-.19a3,3,0,0,0-.41-1.69,1.31,1.31,0,0,0-1.16-.58A1.58,1.58,0,0,0,41.9,15a3.09,3.09,0,0,0-.55,1.81Z"/>
    <path class="cls-2" d="M47.62,13.58h4.57v.83l-.94.09-.2.24L52.93,20l2-5.24-.14-.25-.91-.09v-.83h3.42v.83l-1.05.12L53.2,22.35H51.57L48.7,14.52l-1.08-.11Z"/>
    <path class="cls-2" d="M57.61,17.13h4.57v1.76H57.61Z"/>
    <path class="cls-2" d="M63.37,10.27h5.1v.88l-1.08.09-.3.29v3.94H72.3V11.53L72,11.24,71,11.15v-.88H76v.88l-1,.09-.28.29v9.56l.28.28,1,.1v.88H71v-.88l1.08-.1.27-.28V16.55H67.09v4.54l.3.28,1.08.1v.88h-5.1v-.88l1-.1.29-.28V11.53l-.29-.29-1-.09Z"/>
    <path class="cls-2" d="M82.68,21.32a8.16,8.16,0,0,1-1.66.9,4.06,4.06,0,0,1-1.44.29,2.26,2.26,0,0,1-2.35-2.34,2.22,2.22,0,0,1,1-2,14.81,14.81,0,0,1,4.5-1.49v-.54a2,2,0,0,0-.41-1.42,1.68,1.68,0,0,0-1.3-.45l-.4,0a4.46,4.46,0,0,0-.46.08v1.69H78.47a1,1,0,0,1-.63-.16.63.63,0,0,1-.2-.5c0-.57.38-1.06,1.13-1.47a5.7,5.7,0,0,1,2.79-.63,3.73,3.73,0,0,1,2.6.72,3.27,3.27,0,0,1,.76,2.47v4.66l.24.26,1,.09v.79h-3.2Zm0-.74V17.64a7.39,7.39,0,0,0-2.43.87,1.48,1.48,0,0,0-.65,1.26,1.26,1.26,0,0,0,1.34,1.36,2.69,2.69,0,0,0,.78-.14A6.12,6.12,0,0,0,82.68,20.58Z"/>
    <path class="cls-2" d="M93.41,13.8v2.39H92.33l-.18-1.35-.22-.2a3,3,0,0,0-.59-.21,2.44,2.44,0,0,0-.59-.07,1.58,1.58,0,0,0-1,.28,1,1,0,0,0-.36.8,1,1,0,0,0,.28.73,5.34,5.34,0,0,0,1.39.85l0,0c1.73.83,2.59,1.68,2.59,2.54a2.62,2.62,0,0,1-1,2.17,4.15,4.15,0,0,1-2.69.8,8.76,8.76,0,0,1-1.41-.12A12.21,12.21,0,0,1,87,22.09V19.43h1.08L88.33,21l.18.2a4.06,4.06,0,0,0,.73.28,3.49,3.49,0,0,0,.79.1,1.71,1.71,0,0,0,1.12-.35,1.18,1.18,0,0,0,.4-.95c0-.51-.51-1-1.55-1.47l-.82-.39a5,5,0,0,1-1.57-1.09A1.94,1.94,0,0,1,87.16,16a2.32,2.32,0,0,1,1-1.94,4.07,4.07,0,0,1,2.57-.74,7.91,7.91,0,0,1,1.37.11A7.42,7.42,0,0,1,93.41,13.8Z"/>
    <path class="cls-2" d="M97.29,9.05h.87v5.43a13.27,13.27,0,0,1,1.8-.84,4,4,0,0,1,1.27-.26,2.29,2.29,0,0,1,1.86.74,3.49,3.49,0,0,1,.61,2.25V21.2l.24.27,1,.07v.81h-4.41v-.81l.77-.07.25-.27V16.89a2.27,2.27,0,0,0-.39-1.47A1.48,1.48,0,0,0,99.89,15a3.66,3.66,0,0,0-.77.08,9.13,9.13,0,0,0-1,.22V21.2l.27.27.79.07v.81H94.77v-.81l.92-.07.25-.27V10.6H94.63V9.89Z"/>
    <path class="cls-2" d="M111.26,21.32a7.91,7.91,0,0,1-1.66.9,4.05,4.05,0,0,1-1.43.29,2.26,2.26,0,0,1-2.36-2.34,2.22,2.22,0,0,1,1-2,14.91,14.91,0,0,1,4.51-1.49v-.54a2,2,0,0,0-.42-1.42,1.68,1.68,0,0,0-1.3-.45l-.4,0c-.14,0-.29,0-.46.08v1.69h-1.66a1,1,0,0,1-.63-.16.63.63,0,0,1-.2-.5q0-.86,1.14-1.47a5.63,5.63,0,0,1,2.78-.63,3.77,3.77,0,0,1,2.61.72,3.32,3.32,0,0,1,.75,2.47v4.66l.24.26,1,.09v.79h-3.2Zm0-.74V17.64a7.49,7.49,0,0,0-2.43.87,1.48,1.48,0,0,0-.65,1.26,1.26,1.26,0,0,0,1.34,1.36,2.69,2.69,0,0,0,.78-.14A6.12,6.12,0,0,0,111.26,20.58Z"/>
    <path class="cls-2" d="M115.4,22.35v-.81l1-.07.25-.27V15h-1.3v-.72l2.65-.84h.87l-.08,1.83c.31-.32.64-.64,1-.95a11.82,11.82,0,0,1,1.11-.87l.24,0h.16a2.39,2.39,0,0,1,.59.08,2.82,2.82,0,0,1,.6.23l-.23,2.49h-.94a1.31,1.31,0,0,0-.49-.5,1.42,1.42,0,0,0-.68-.15,1.66,1.66,0,0,0-.55.12,5.14,5.14,0,0,0-.72.38V21.2l.26.27,1.28.07v.81Z"/>
    <path class="cls-2" d="M127.78,13.36a4.39,4.39,0,0,1,3.3,1.26A4.65,4.65,0,0,1,132.3,18,4.32,4.32,0,0,1,131,21.26a4.68,4.68,0,0,1-3.39,1.23A4.28,4.28,0,0,1,123.13,18a4.48,4.48,0,0,1,1.27-3.34A4.57,4.57,0,0,1,127.78,13.36Zm-.07,1a1.71,1.71,0,0,0-1.53.94,5.23,5.23,0,0,0-.56,2.64,5.38,5.38,0,0,0,.55,2.68,1.7,1.7,0,0,0,1.53,1,1.73,1.73,0,0,0,1.57-.93,5.25,5.25,0,0,0,.55-2.66,5.25,5.25,0,0,0-.56-2.67A1.71,1.71,0,0,0,127.71,14.32Z"/>
    <path class="cls-2" d="M133.4,22.35v-.81l.92-.07.26-.27V15h-1.23v-.72l2.59-.84h.87v1.06a11.59,11.59,0,0,1,1.78-.83,3.87,3.87,0,0,1,1.3-.27,2.23,2.23,0,0,1,1.83.74,3.45,3.45,0,0,1,.61,2.25V21.2l.24.27,1,.07v.81h-4.41v-.81l.78-.07.24-.27V16.89a2.33,2.33,0,0,0-.38-1.47,1.5,1.5,0,0,0-1.24-.47,3.69,3.69,0,0,0-.75.08,9.6,9.6,0,0,0-.95.22V21.2l.25.27.79.07v.81Z"/>
    <path class="cls-2" d="M155.93,9.43v.91a3,3,0,0,0-2.43,1.89,12.55,12.55,0,0,0-.76,5,12,12,0,0,0,.78,4.91A3,3,0,0,0,155.93,24v.92A4.7,4.7,0,0,1,152,22.79a9.6,9.6,0,0,1-1.4-5.58A9.94,9.94,0,0,1,152,11.56,4.73,4.73,0,0,1,155.93,9.43Z"/>
    <path class="cls-2" d="M157.09,26.29v-.83l1-.09.25-.27V15h-1.23v-.72l2.62-.84h.8V14.5a8,8,0,0,1,1.54-.86,3.64,3.64,0,0,1,1.31-.28,3,3,0,0,1,2.44,1.2,4.74,4.74,0,0,1,1,3,4.66,4.66,0,0,1-1.29,3.45A4.7,4.7,0,0,1,162,22.35c-.25,0-.49,0-.73,0s-.49,0-.74-.06v2.87l.28.26,1.11.07v.83Zm3.42-5,.58.09a5.49,5.49,0,0,0,.58,0,2.28,2.28,0,0,0,1.92-.94,4.07,4.07,0,0,0,.72-2.53,3.46,3.46,0,0,0-.63-2.21,2.1,2.1,0,0,0-1.74-.8,3,3,0,0,0-.64.08c-.23.06-.49.15-.79.26Z"/>
    <path class="cls-2" d="M167.84,22.35v-.81l.95-.07.26-.27V15h-1.3v-.72l2.64-.84h.87l-.08,1.83c.31-.32.65-.64,1-.95a13.13,13.13,0,0,1,1.1-.87l.25,0h.16a2.32,2.32,0,0,1,.58.08,2.7,2.7,0,0,1,.61.23l-.23,2.49h-.94a1.38,1.38,0,0,0-.49-.5,1.45,1.45,0,0,0-.68-.15,1.61,1.61,0,0,0-.55.12,4.7,4.7,0,0,0-.73.38V21.2l.27.27,1.28.07v.81Z"/>
    <path class="cls-2" d="M178,13.42h.87V21.2l.27.27,1,.07v.81h-4.72v-.81l1-.07.26-.27V15h-1.19v-.72Zm-.19-4.11a1.33,1.33,0,0,1,1,.38,1.27,1.27,0,0,1,.38.94,1.33,1.33,0,0,1-.38,1,1.24,1.24,0,0,1-.95.38,1.27,1.27,0,0,1-.94-.37,1.31,1.31,0,0,1-.38-.95,1.34,1.34,0,0,1,.37-1A1.24,1.24,0,0,1,177.81,9.31Z"/>
    <path class="cls-2" d="M180.28,13.58h4.57v.83l-.94.09-.19.24L185.59,20l2-5.24-.14-.25-.92-.09v-.83H190v.83l-1,.12-3.1,7.82h-1.62l-2.88-7.83-1.08-.11Z"/>
    <path class="cls-2" d="M195.79,21.32a7.91,7.91,0,0,1-1.66.9,4,4,0,0,1-1.43.29,2.31,2.31,0,0,1-1.7-.66,2.28,2.28,0,0,1-.66-1.68,2.24,2.24,0,0,1,1-2,15,15,0,0,1,4.51-1.49v-.54a2.08,2.08,0,0,0-.41-1.42,1.69,1.69,0,0,0-1.3-.45l-.41,0c-.14,0-.29,0-.46.08v1.69h-1.66A1.08,1.08,0,0,1,191,16a.62.62,0,0,1-.19-.5c0-.57.37-1.06,1.13-1.47a5.63,5.63,0,0,1,2.78-.63,3.74,3.74,0,0,1,2.61.72,3.32,3.32,0,0,1,.75,2.47v4.66l.24.26,1,.09v.79H196Zm0-.74V17.64a7.32,7.32,0,0,0-2.42.87,1.45,1.45,0,0,0-.65,1.26,1.34,1.34,0,0,0,.36,1,1.31,1.31,0,0,0,1,.37,2.69,2.69,0,0,0,.78-.14A6.12,6.12,0,0,0,195.79,20.58Z"/>
    <path class="cls-2" d="M200.93,14.89h-1.17v-.68l1.32-.76.94-1.87h1.14v2.23h2.66v1.08h-2.66v4.49a2.17,2.17,0,0,0,.32,1.38,1.51,1.51,0,0,0,1.17.37,5.85,5.85,0,0,0,.62,0,4.51,4.51,0,0,0,.55-.09v.86a11.82,11.82,0,0,1-1.47.42,6.09,6.09,0,0,1-1.28.14,3.49,3.49,0,0,1-.84-.09,2.28,2.28,0,0,1-.65-.3,1.36,1.36,0,0,1-.51-.59,4,4,0,0,1-.14-1.32Z"/>
    <path class="cls-2" d="M214.72,20.11v1.34a7.88,7.88,0,0,1-1.86.79,6.83,6.83,0,0,1-1.88.27,4.37,4.37,0,0,1-3.24-1.24A4.49,4.49,0,0,1,206.52,18a4.65,4.65,0,0,1,1.25-3.35A4.26,4.26,0,0,1,211,13.35a3.58,3.58,0,0,1,2.76,1.06,4.28,4.28,0,0,1,1,3v.34h-5.89v0a3.57,3.57,0,0,0,.77,2.42,2.72,2.72,0,0,0,2.13.88,4.38,4.38,0,0,0,1.45-.25A6.59,6.59,0,0,0,214.72,20.11Zm-2.37-3.31v-.19a3,3,0,0,0-.4-1.69,1.33,1.33,0,0,0-1.16-.58,1.6,1.6,0,0,0-1.33.65,3.09,3.09,0,0,0-.54,1.81Z"/>
    <path class="cls-2" d="M216,9.43a4.71,4.71,0,0,1,3.87,2.14,9.81,9.81,0,0,1,1.38,5.59,9.82,9.82,0,0,1-1.38,5.6A4.69,4.69,0,0,1,216,24.9V24a3,3,0,0,0,2.4-1.87,12.15,12.15,0,0,0,.78-5,12.11,12.11,0,0,0-.78-5,2.93,2.93,0,0,0-2.4-1.85Z"/>
    <path class="cls-2" d="M237.25,14.6a15.56,15.56,0,0,1,1.86-.91,4.12,4.12,0,0,1,1.33-.31,2.29,2.29,0,0,1,1.87.75,3.4,3.4,0,0,1,.63,2.24V21.2l.24.27.94.07v.81H239.7v-.81l.78-.07.24-.27V16.89a2.29,2.29,0,0,0-.39-1.49,1.59,1.59,0,0,0-1.26-.45,2.93,2.93,0,0,0-.69.08,6.49,6.49,0,0,0-.84.26V21.2l.23.27.82.07v.81h-4.26v-.81l.74-.07.26-.31V16.78a2,2,0,0,0-.39-1.39,1.54,1.54,0,0,0-1.23-.44A3.08,3.08,0,0,0,233,15a5.13,5.13,0,0,0-.78.22V21.2l.24.27.76.07v.81h-4.41v-.81l.92-.07.26-.27V15h-1.18v-.72l2.54-.84h.87v1.06a9.9,9.9,0,0,1,1.68-.83,3.58,3.58,0,0,1,1.26-.27,2.33,2.33,0,0,1,1.22.31A2.43,2.43,0,0,1,237.25,14.6Z"/>
    <path class="cls-2" d="M247.24,13.36h.87V19a2.37,2.37,0,0,0,.4,1.54,1.63,1.63,0,0,0,1.31.47,3.49,3.49,0,0,0,.68-.07,6.72,6.72,0,0,0,.87-.21V14.93H250.2v-.72l2.56-.85h.82V21.2l.25.27.94.07v.81h-3.4v-1a8.91,8.91,0,0,1-1.66.89,3.87,3.87,0,0,1-1.37.27,2.27,2.27,0,0,1-1.86-.76,3.7,3.7,0,0,1-.61-2.32v-4.5H244.7v-.72Z"/>
    <path class="cls-2" d="M262.2,13.8v2.39h-1.08L261,14.84l-.22-.2a2.86,2.86,0,0,0-.6-.21,2.44,2.44,0,0,0-.59-.07,1.6,1.6,0,0,0-1,.28,1,1,0,0,0-.36.8,1,1,0,0,0,.28.73,5.46,5.46,0,0,0,1.4.85l0,0c1.73.83,2.6,1.68,2.6,2.54a2.65,2.65,0,0,1-1,2.17,4.2,4.2,0,0,1-2.7.8,9,9,0,0,1-1.41-.12,13,13,0,0,1-1.56-.34V19.43h1.08l.21,1.55.19.2a3.79,3.79,0,0,0,.73.28,3.33,3.33,0,0,0,.78.1,1.69,1.69,0,0,0,1.12-.35,1.19,1.19,0,0,0,.41-.95q0-.77-1.56-1.47L258,18.4a4.84,4.84,0,0,1-1.57-1.09A2,2,0,0,1,256,16a2.33,2.33,0,0,1,1-1.94,4.07,4.07,0,0,1,2.57-.74,7.8,7.8,0,0,1,1.36.11A7.42,7.42,0,0,1,262.2,13.8Z"/>
    <path class="cls-2" d="M272,20.11v1.34a7.88,7.88,0,0,1-1.86.79,6.83,6.83,0,0,1-1.88.27A4.36,4.36,0,0,1,265,21.27,4.49,4.49,0,0,1,263.8,18a4.65,4.65,0,0,1,1.25-3.35,4.26,4.26,0,0,1,3.21-1.29A3.58,3.58,0,0,1,271,14.41a4.33,4.33,0,0,1,1,3v.34h-5.89v0a3.52,3.52,0,0,0,.77,2.42,2.72,2.72,0,0,0,2.13.88,4.38,4.38,0,0,0,1.45-.25A6.59,6.59,0,0,0,272,20.11Zm-2.37-3.31v-.19a3,3,0,0,0-.4-1.69,1.33,1.33,0,0,0-1.16-.58,1.59,1.59,0,0,0-1.33.65,3.09,3.09,0,0,0-.55,1.81Z"/>
    <path class="cls-2" d="M275.52,13.36h.86V19a2.37,2.37,0,0,0,.4,1.54,1.64,1.64,0,0,0,1.31.47,3.51,3.51,0,0,0,.69-.07,7,7,0,0,0,.86-.21V14.93h-1.17v-.72l2.56-.85h.83V21.2l.24.27.94.07v.81h-3.4v-1a8.91,8.91,0,0,1-1.66.89,3.82,3.82,0,0,1-1.36.27,2.27,2.27,0,0,1-1.86-.76,3.64,3.64,0,0,1-.61-2.32v-4.5H273v-.72Z"/>
    <path class="cls-2" d="M292.39,14.6a14.79,14.79,0,0,1,1.85-.91,4.17,4.17,0,0,1,1.34-.31,2.3,2.3,0,0,1,1.87.75,3.46,3.46,0,0,1,.62,2.24V21.2l.24.27.95.07v.81h-4.42v-.81l.77-.07.25-.27V16.89a2.29,2.29,0,0,0-.39-1.49A1.62,1.62,0,0,0,294.2,15a2.93,2.93,0,0,0-.69.08,6.91,6.91,0,0,0-.83.26V21.2l.22.27.82.07v.81h-4.25v-.81l.74-.07.25-.31V16.78a2,2,0,0,0-.39-1.39,1.51,1.51,0,0,0-1.23-.44,3.19,3.19,0,0,0-.73.08,5.13,5.13,0,0,0-.78.22V21.2l.25.27.75.07v.81h-4.41v-.81l.92-.07.26-.27V15h-1.18v-.72l2.54-.84h.87v1.06a10.69,10.69,0,0,1,1.68-.83,3.63,3.63,0,0,1,1.27-.27,2.33,2.33,0,0,1,1.22.31A2.59,2.59,0,0,1,292.39,14.6Z"/>
    <path class="cls-2" d="M305.22,22.35v-.83l.9-.09.26-.29V14.89h-1.16v-.68l1.16-.54a5.39,5.39,0,0,1,.45-2.28,4.22,4.22,0,0,1,1.38-1.66,4.09,4.09,0,0,1,1.05-.56,3.45,3.45,0,0,1,1.13-.2,2,2,0,0,1,1.24.36,1.15,1.15,0,0,1,.46,1,.92.92,0,0,1-.27.65,1.84,1.84,0,0,1-.78.46L309.3,9.86a2.27,2.27,0,0,0-.53,1,6.78,6.78,0,0,0-.18,1.69v1.22H311v1.08h-2.45v6.27l.29.27,1.21.09v.83Z"/>
    <path class="cls-2" d="M316.12,13.36a4.37,4.37,0,0,1,3.3,1.26A4.65,4.65,0,0,1,320.64,18a4.32,4.32,0,0,1-1.27,3.25A4.68,4.68,0,0,1,316,22.49,4.28,4.28,0,0,1,311.47,18a4.48,4.48,0,0,1,1.27-3.34A4.57,4.57,0,0,1,316.12,13.36Zm-.07,1a1.72,1.72,0,0,0-1.53.94A5.23,5.23,0,0,0,314,17.9a5.49,5.49,0,0,0,.55,2.68,1.7,1.7,0,0,0,1.53,1,1.73,1.73,0,0,0,1.57-.93,5.25,5.25,0,0,0,.55-2.66,5.37,5.37,0,0,0-.55-2.67A1.73,1.73,0,0,0,316.05,14.32Z"/>
    <path class="cls-2" d="M321.71,22.35v-.81l1-.07.26-.27V15h-1.3v-.72l2.64-.84h.87l-.08,1.83c.31-.32.65-.64,1-.95a13.13,13.13,0,0,1,1.1-.87l.25,0h.16a2.32,2.32,0,0,1,.58.08,2.7,2.7,0,0,1,.61.23l-.23,2.49h-.94a1.38,1.38,0,0,0-.49-.5,1.45,1.45,0,0,0-.68-.15,1.61,1.61,0,0,0-.55.12,4.7,4.7,0,0,0-.73.38V21.2l.27.27,1.28.07v.81Z"/>
    <path class="cls-2" d="M337,9.05h.87v5.43a13.27,13.27,0,0,1,1.8-.84,4,4,0,0,1,1.27-.26,2.29,2.29,0,0,1,1.86.74,3.49,3.49,0,0,1,.61,2.25V21.2l.24.27.95.07v.81h-4.41v-.81l.77-.07.25-.27V16.89a2.27,2.27,0,0,0-.39-1.47,1.48,1.48,0,0,0-1.22-.47,3.66,3.66,0,0,0-.77.08,9.13,9.13,0,0,0-1,.22V21.2l.27.27.79.07v.81h-4.45v-.81l.92-.07.25-.27V10.6h-1.31V9.89Z"/>
    <path class="cls-2" d="M347.86,13.42h.87V21.2l.27.27,1,.07v.81h-4.72v-.81l1-.07.26-.27V15h-1.19v-.72Zm-.19-4.11a1.34,1.34,0,0,1,1,.38,1.27,1.27,0,0,1,.37.94,1.33,1.33,0,0,1-.37,1,1.38,1.38,0,0,1-1.89,0,1.27,1.27,0,0,1-.38-.95,1.34,1.34,0,0,1,.37-1A1.24,1.24,0,0,1,347.67,9.31Z"/>
    <path class="cls-2" d="M357.35,13.8v2.39h-1.08l-.17-1.35-.22-.2a2.86,2.86,0,0,0-.6-.21,2.44,2.44,0,0,0-.59-.07,1.6,1.6,0,0,0-1,.28,1,1,0,0,0-.36.8,1,1,0,0,0,.28.73A5.46,5.46,0,0,0,355,17l0,0c1.73.83,2.6,1.68,2.6,2.54a2.65,2.65,0,0,1-1,2.17,4.2,4.2,0,0,1-2.7.8,9,9,0,0,1-1.41-.12,13,13,0,0,1-1.56-.34V19.43h1.08l.21,1.55.19.2a3.79,3.79,0,0,0,.73.28,3.33,3.33,0,0,0,.78.1,1.69,1.69,0,0,0,1.12-.35,1.19,1.19,0,0,0,.41-.95q0-.77-1.56-1.47l-.81-.39a4.84,4.84,0,0,1-1.57-1.09A2,2,0,0,1,351.1,16a2.33,2.33,0,0,1,1-1.94,4.07,4.07,0,0,1,2.57-.74,7.8,7.8,0,0,1,1.36.11A7.42,7.42,0,0,1,357.35,13.8Z"/>
    <path class="cls-2" d="M359.8,14.89h-1.17v-.68l1.33-.76.94-1.87H362v2.23h2.66v1.08H362v4.49a2.17,2.17,0,0,0,.32,1.38,1.51,1.51,0,0,0,1.17.37,5.85,5.85,0,0,0,.62,0,4.51,4.51,0,0,0,.55-.09v.86a11.82,11.82,0,0,1-1.47.42,6.09,6.09,0,0,1-1.28.14,3.61,3.61,0,0,1-.84-.09,2.28,2.28,0,0,1-.65-.3,1.36,1.36,0,0,1-.51-.59,4.27,4.27,0,0,1-.14-1.32Z"/>
    <path class="cls-2" d="M370.05,13.36a4.37,4.37,0,0,1,3.3,1.26A4.65,4.65,0,0,1,374.57,18a4.32,4.32,0,0,1-1.27,3.25,4.68,4.68,0,0,1-3.39,1.23A4.28,4.28,0,0,1,365.4,18a4.48,4.48,0,0,1,1.27-3.34A4.57,4.57,0,0,1,370.05,13.36Zm-.07,1a1.71,1.71,0,0,0-1.53.94,5.23,5.23,0,0,0-.56,2.64,5.38,5.38,0,0,0,.55,2.68,1.7,1.7,0,0,0,1.53,1,1.73,1.73,0,0,0,1.57-.93,5.25,5.25,0,0,0,.55-2.66,5.25,5.25,0,0,0-.56-2.67A1.71,1.71,0,0,0,370,14.32Z"/>
    <path class="cls-2" d="M375.64,22.35v-.81l.95-.07.26-.27V15h-1.3v-.72l2.64-.84h.87L379,15.25c.31-.32.65-.64,1-.95a13.13,13.13,0,0,1,1.1-.87l.25,0h.16a2.32,2.32,0,0,1,.58.08,2.7,2.7,0,0,1,.61.23l-.23,2.49h-.94a1.38,1.38,0,0,0-.49-.5,1.45,1.45,0,0,0-.68-.15,1.57,1.57,0,0,0-.55.12,4.7,4.7,0,0,0-.73.38V21.2l.27.27,1.28.07v.81Z"/>
    <path class="cls-2" d="M382.62,13.6h4.57v.78l-.91.1-.19.26,2,5.08,2-5.07-.16-.27-.95-.1V13.6h3.45v.78l-1,.15L387.89,23a7.14,7.14,0,0,1-1.53,2.43,2.6,2.6,0,0,1-1.81.88,1.58,1.58,0,0,1-1.09-.4,1.18,1.18,0,0,1-.22-1.65,2,2,0,0,1,.69-.56l1.57,1.08a3.76,3.76,0,0,0,.72-.85,8.34,8.34,0,0,0,.68-1.34l-3.2-8-1.08-.15Z"/>
    <path class="cls-2" d="M402.53,13.36a4.4,4.4,0,0,1,3.3,1.26A4.65,4.65,0,0,1,407.05,18a4.32,4.32,0,0,1-1.28,3.25,4.65,4.65,0,0,1-3.38,1.23A4.29,4.29,0,0,1,397.87,18a4.48,4.48,0,0,1,1.28-3.34A4.56,4.56,0,0,1,402.53,13.36Zm-.07,1a1.72,1.72,0,0,0-1.54.94,5.24,5.24,0,0,0-.55,2.64,5.38,5.38,0,0,0,.55,2.68,1.68,1.68,0,0,0,1.52,1,1.72,1.72,0,0,0,1.57-.93,5.24,5.24,0,0,0,.56-2.66,5.36,5.36,0,0,0-.56-2.67A1.72,1.72,0,0,0,402.46,14.32Z"/>
    <path class="cls-2" d="M408.15,22.35v-.83l.9-.09.26-.29V14.89h-1.16v-.68l1.16-.54a5.39,5.39,0,0,1,.45-2.28,4.22,4.22,0,0,1,1.38-1.66,4.09,4.09,0,0,1,1.05-.56,3.41,3.41,0,0,1,1.13-.2,2,2,0,0,1,1.24.36,1.15,1.15,0,0,1,.46,1,.92.92,0,0,1-.27.65,1.84,1.84,0,0,1-.78.46l-1.75-1.54a2.26,2.26,0,0,0-.52,1,6.78,6.78,0,0,0-.18,1.69v1.22H414v1.08h-2.45v6.27l.29.27,1.2.09v.83Z"/>
    <path class="cls-2" d="M420.48,14.89h-1.17v-.68l1.33-.76.94-1.87h1.13v2.23h2.66v1.08h-2.66v4.49a2.17,2.17,0,0,0,.32,1.38,1.51,1.51,0,0,0,1.17.37,5.85,5.85,0,0,0,.62,0,4.51,4.51,0,0,0,.55-.09v.86a11.82,11.82,0,0,1-1.47.42,6.09,6.09,0,0,1-1.28.14,3.49,3.49,0,0,1-.84-.09,2.28,2.28,0,0,1-.65-.3,1.36,1.36,0,0,1-.51-.59,4.27,4.27,0,0,1-.14-1.32Z"/>
    <path class="cls-2" d="M425.93,22.35v-.81l.95-.07.26-.27V15h-1.3v-.72l2.64-.84h.87l-.08,1.83c.31-.32.65-.64,1-.95a13.13,13.13,0,0,1,1.1-.87l.25,0h.16a2.32,2.32,0,0,1,.58.08,2.7,2.7,0,0,1,.61.23l-.23,2.49h-.94a1.38,1.38,0,0,0-.49-.5,1.45,1.45,0,0,0-.68-.15,1.57,1.57,0,0,0-.55.12,4.7,4.7,0,0,0-.73.38V21.2l.27.27,1.28.07v.81Z"/>
    <path class="cls-2" d="M439.15,21.32a7.91,7.91,0,0,1-1.66.9,4,4,0,0,1-1.43.29,2.31,2.31,0,0,1-1.7-.66,2.28,2.28,0,0,1-.66-1.68,2.24,2.24,0,0,1,1-2,14.91,14.91,0,0,1,4.51-1.49v-.54a2.08,2.08,0,0,0-.41-1.42,1.69,1.69,0,0,0-1.3-.45l-.41,0c-.14,0-.29,0-.46.08v1.69h-1.66a1.08,1.08,0,0,1-.63-.16.62.62,0,0,1-.19-.5c0-.57.37-1.06,1.13-1.47a5.63,5.63,0,0,1,2.78-.63,3.74,3.74,0,0,1,2.61.72,3.32,3.32,0,0,1,.75,2.47v4.66l.24.26,1,.09v.79h-3.2Zm0-.74V17.64a7.32,7.32,0,0,0-2.42.87,1.45,1.45,0,0,0-.65,1.26,1.34,1.34,0,0,0,.36,1,1.31,1.31,0,0,0,1,.37,2.69,2.69,0,0,0,.78-.14A6.12,6.12,0,0,0,439.15,20.58Z"/>
    <path class="cls-2" d="M451.12,21.54a7.94,7.94,0,0,1-1.72.71,6.09,6.09,0,0,1-1.68.24,4.16,4.16,0,0,1-3.12-1.22,4.39,4.39,0,0,1-1.19-3.2,4.47,4.47,0,0,1,4.64-4.67,3.79,3.79,0,0,1,2.15.55,1.67,1.67,0,0,1,.82,1.41,1.13,1.13,0,0,1-.37.88,1.28,1.28,0,0,1-.92.35,2,2,0,0,1-.57-.08,2.17,2.17,0,0,1-.5-.26V14.34l-.26-.05h-.19a2,2,0,0,0-1.68.94,4,4,0,0,0-.68,2.41,3.9,3.9,0,0,0,.75,2.52,2.47,2.47,0,0,0,2,.92,4.14,4.14,0,0,0,1.21-.2,6.46,6.46,0,0,0,1.28-.61Z"/>
    <path class="cls-2" d="M452.86,14.89h-1.17v-.68l1.32-.76.94-1.87h1.14v2.23h2.66v1.08h-2.66v4.49a2.17,2.17,0,0,0,.32,1.38,1.51,1.51,0,0,0,1.17.37,6,6,0,0,0,.62,0,4.51,4.51,0,0,0,.55-.09v.86a12.33,12.33,0,0,1-1.47.42,6.09,6.09,0,0,1-1.28.14,3.49,3.49,0,0,1-.84-.09,2.28,2.28,0,0,1-.65-.3,1.36,1.36,0,0,1-.51-.59,4,4,0,0,1-.14-1.32Z"/>
    <path class="cls-2" d="M463.11,13.36a4.4,4.4,0,0,1,3.3,1.26A4.65,4.65,0,0,1,467.63,18a4.32,4.32,0,0,1-1.28,3.25A4.64,4.64,0,0,1,463,22.49,4.29,4.29,0,0,1,458.45,18a4.48,4.48,0,0,1,1.28-3.34A4.57,4.57,0,0,1,463.11,13.36Zm-.07,1a1.73,1.73,0,0,0-1.54.94A5.24,5.24,0,0,0,461,17.9a5.38,5.38,0,0,0,.55,2.68,1.68,1.68,0,0,0,1.52,1,1.75,1.75,0,0,0,1.58-.93,5.25,5.25,0,0,0,.55-2.66,5.36,5.36,0,0,0-.56-2.67A1.72,1.72,0,0,0,463,14.32Z"/>
    <path class="cls-2" d="M468.69,22.35v-.81l1-.07.26-.27V15H468.6v-.72l2.65-.84h.87L472,15.25c.31-.32.64-.64,1-.95s.73-.6,1.11-.87l.24,0h.17a2.38,2.38,0,0,1,.58.08,2.47,2.47,0,0,1,.6.23l-.23,2.49h-.94a1.29,1.29,0,0,0-.48-.5,1.47,1.47,0,0,0-.69-.15,1.56,1.56,0,0,0-.54.12,4.7,4.7,0,0,0-.73.38V21.2l.26.27,1.29.07v.81Z"/>
    <path class="cls-2" d="M482.86,13.8v2.39h-1.08l-.18-1.35-.22-.2a2.78,2.78,0,0,0-.59-.21,2.44,2.44,0,0,0-.59-.07,1.58,1.58,0,0,0-1,.28,1,1,0,0,0-.36.8,1,1,0,0,0,.28.73,5.46,5.46,0,0,0,1.4.85l0,0c1.73.83,2.59,1.68,2.59,2.54a2.62,2.62,0,0,1-1,2.17,4.15,4.15,0,0,1-2.69.8,8.76,8.76,0,0,1-1.41-.12,12.21,12.21,0,0,1-1.56-.34V19.43h1.08l.21,1.55.19.2a3.7,3.7,0,0,0,.72.28,3.49,3.49,0,0,0,.79.1,1.71,1.71,0,0,0,1.12-.35,1.19,1.19,0,0,0,.41-.95q0-.77-1.56-1.47l-.82-.39a5.08,5.08,0,0,1-1.57-1.09,1.94,1.94,0,0,1-.45-1.28,2.32,2.32,0,0,1,1-1.94,4.09,4.09,0,0,1,2.57-.74,7.83,7.83,0,0,1,1.37.11A7.42,7.42,0,0,1,482.86,13.8Z"/>
    <path class="cls-2" d="M495.2,21.32a7.91,7.91,0,0,1-1.66.9,4.05,4.05,0,0,1-1.43.29,2.31,2.31,0,0,1-1.7-.66,2.28,2.28,0,0,1-.66-1.68,2.22,2.22,0,0,1,1-2,14.91,14.91,0,0,1,4.51-1.49v-.54a2,2,0,0,0-.42-1.42,1.67,1.67,0,0,0-1.3-.45l-.4,0c-.14,0-.29,0-.46.08v1.69H491a1,1,0,0,1-.63-.16.62.62,0,0,1-.19-.5c0-.57.37-1.06,1.13-1.47a5.63,5.63,0,0,1,2.78-.63,3.75,3.75,0,0,1,2.61.72,3.32,3.32,0,0,1,.75,2.47v4.66l.24.26,1,.09v.79h-3.2Zm0-.74V17.64a7.32,7.32,0,0,0-2.42.87,1.45,1.45,0,0,0-.65,1.26,1.34,1.34,0,0,0,.36,1,1.31,1.31,0,0,0,1,.37,2.69,2.69,0,0,0,.78-.14A6.12,6.12,0,0,0,495.2,20.58Z"/>
    <path class="cls-2" d="M499.38,22.35v-.81l.92-.07.25-.27V15h-1.23v-.72l2.6-.84h.87v1.06a11.12,11.12,0,0,1,1.77-.83,3.92,3.92,0,0,1,1.3-.27,2.25,2.25,0,0,1,1.84.74,3.51,3.51,0,0,1,.61,2.25V21.2l.23.27.95.07v.81h-4.4v-.81l.77-.07.25-.27V16.89a2.27,2.27,0,0,0-.39-1.47,1.49,1.49,0,0,0-1.23-.47,3.55,3.55,0,0,0-.75.08,9.6,9.6,0,0,0-.95.22V21.2l.24.27.79.07v.81Z"/>
    <path class="cls-2" d="M516.72,10.61H515.4V9.89l2.68-.84h.83V21.2l.25.29.92.07v.79h-3.36v-1a7.06,7.06,0,0,1-1.52.88,3.44,3.44,0,0,1-1.33.29,3.1,3.1,0,0,1-2.51-1.21,4.84,4.84,0,0,1-1-3.13,4.82,4.82,0,0,1,1.29-3.49A4.42,4.42,0,0,1,515,13.35a7.57,7.57,0,0,1,.81,0c.28,0,.58.07.89.13Zm0,10v-6c-.27-.09-.52-.15-.73-.2a3.4,3.4,0,0,0-.61-.06,2.26,2.26,0,0,0-1.89.93,4.05,4.05,0,0,0-.7,2.5,3.76,3.76,0,0,0,.64,2.34,2.12,2.12,0,0,0,1.77.85,3,3,0,0,0,.68-.09A5.23,5.23,0,0,0,516.72,20.63Z"/>
    <path class="cls-2" d="M531.85,21.32a7.91,7.91,0,0,1-1.66.9,4,4,0,0,1-1.43.29,2.31,2.31,0,0,1-1.7-.66,2.28,2.28,0,0,1-.66-1.68,2.22,2.22,0,0,1,1-2,14.91,14.91,0,0,1,4.51-1.49v-.54a2.08,2.08,0,0,0-.41-1.42,1.7,1.7,0,0,0-1.31-.45l-.4,0c-.14,0-.29,0-.46.08v1.69h-1.66A1,1,0,0,1,527,16a.62.62,0,0,1-.19-.5c0-.57.37-1.06,1.13-1.47a5.63,5.63,0,0,1,2.78-.63,3.75,3.75,0,0,1,2.61.72,3.32,3.32,0,0,1,.75,2.47v4.66l.24.26,1,.09v.79h-3.2Zm0-.74V17.64a7.32,7.32,0,0,0-2.42.87,1.45,1.45,0,0,0-.65,1.26,1.34,1.34,0,0,0,.36,1,1.31,1.31,0,0,0,1,.37,2.69,2.69,0,0,0,.78-.14A6.12,6.12,0,0,0,531.85,20.58Z"/>
    <path class="cls-2" d="M542.8,13.94h2.67v1h-2a3,3,0,0,1,.31.69,2.37,2.37,0,0,1,.1.7,2.62,2.62,0,0,1-1,2.16,4.33,4.33,0,0,1-2.77.82h-.52a1.28,1.28,0,0,0-.11.35,1.71,1.71,0,0,0,0,.31,1.85,1.85,0,0,0,0,.23c0,.08,0,.17,0,.26l1.22.16a8.27,8.27,0,0,1,3.08.87,1.77,1.77,0,0,1,.86,1.58,2.69,2.69,0,0,1-1.38,2.26,6.13,6.13,0,0,1-3.46.92,4.88,4.88,0,0,1-2.73-.66,2.08,2.08,0,0,1-1-1.8,1.92,1.92,0,0,1,.49-1.37,2.09,2.09,0,0,1,1.35-.62,3.36,3.36,0,0,1-.17-.47,1.69,1.69,0,0,1,.18-1.26,3.6,3.6,0,0,1,.76-.87,3.2,3.2,0,0,1-1.66-1,2.61,2.61,0,0,1-.57-1.7,2.72,2.72,0,0,1,1-2.24,4.28,4.28,0,0,1,2.81-.85,5.83,5.83,0,0,1,1.22.13A7.11,7.11,0,0,1,542.8,13.94ZM539,22a2.28,2.28,0,0,0-.57.69,1.73,1.73,0,0,0-.19.81,1.62,1.62,0,0,0,.6,1.27,2.21,2.21,0,0,0,1.49.53,2.37,2.37,0,0,0,1.54-.49,1.5,1.5,0,0,0,.6-1.21,1,1,0,0,0-.4-.85,3.85,3.85,0,0,0-1.54-.49Zm1.24-7.76a1.28,1.28,0,0,0-1.1.57,2.52,2.52,0,0,0-.41,1.53,2.74,2.74,0,0,0,.4,1.58,1.24,1.24,0,0,0,1.08.59,1.22,1.22,0,0,0,1-.6,2.8,2.8,0,0,0,.4-1.59,2.54,2.54,0,0,0-.4-1.5A1.2,1.2,0,0,0,540.28,14.24Z"/>
    <path class="cls-2" d="M545.91,22.35v-.81l1-.07.26-.27V15h-1.3v-.72l2.64-.84h.87l-.08,1.83c.31-.32.65-.64,1-.95a13.13,13.13,0,0,1,1.1-.87l.25,0h.16a2.32,2.32,0,0,1,.58.08,2.7,2.7,0,0,1,.61.23l-.23,2.49h-.94a1.38,1.38,0,0,0-.49-.5,1.45,1.45,0,0,0-.68-.15,1.61,1.61,0,0,0-.55.12,4.7,4.7,0,0,0-.73.38V21.2l.27.27,1.28.07v.81Z"/>
    <path class="cls-2" d="M556.07,13.42h.87V21.2l.27.27,1,.07v.81H553.5v-.81l1-.07.26-.27V15h-1.19v-.72Zm-.19-4.11a1.33,1.33,0,0,1,1,.38,1.27,1.27,0,0,1,.38.94,1.33,1.33,0,0,1-.38,1,1.24,1.24,0,0,1-1,.38,1.27,1.27,0,0,1-.94-.37,1.31,1.31,0,0,1-.38-.95,1.34,1.34,0,0,1,.37-1A1.24,1.24,0,0,1,555.88,9.31Z"/>
    <path class="cls-2" d="M566.8,21.54a7.94,7.94,0,0,1-1.72.71,6,6,0,0,1-1.68.24,4.16,4.16,0,0,1-3.12-1.22,4.39,4.39,0,0,1-1.19-3.2,4.47,4.47,0,0,1,4.64-4.67,3.79,3.79,0,0,1,2.15.55,1.64,1.64,0,0,1,.82,1.41,1.13,1.13,0,0,1-.37.88,1.28,1.28,0,0,1-.92.35,2,2,0,0,1-.57-.08,2.17,2.17,0,0,1-.5-.26V14.34l-.26-.05h-.19a2,2,0,0,0-1.68.94,4,4,0,0,0-.68,2.41,3.9,3.9,0,0,0,.75,2.52,2.48,2.48,0,0,0,2,.92,4.08,4.08,0,0,0,1.21-.2,6.46,6.46,0,0,0,1.28-.61Z"/>
    <path class="cls-2" d="M570,13.36h.86V19a2.37,2.37,0,0,0,.4,1.54,1.64,1.64,0,0,0,1.31.47,3.34,3.34,0,0,0,.68-.07,6.72,6.72,0,0,0,.87-.21V14.93h-1.17v-.72l2.56-.85h.83V21.2l.24.27.94.07v.81h-3.4v-1a8.91,8.91,0,0,1-1.66.89,3.82,3.82,0,0,1-1.36.27,2.27,2.27,0,0,1-1.86-.76,3.64,3.64,0,0,1-.61-2.32v-4.5h-1.17v-.72Z"/>
    <path class="cls-2" d="M578.24,22.35v-.79l1-.11.25-.25V10.61h-1.29V9.89L581,9.05h.79V21.16l.27.29,1,.11v.79Z"/>
    <path class="cls-2" d="M584.81,14.89h-1.16v-.68l1.32-.76.94-1.87h1.14v2.23h2.66v1.08h-2.66v4.49a2.17,2.17,0,0,0,.32,1.38,1.51,1.51,0,0,0,1.17.37,6,6,0,0,0,.62,0,4.85,4.85,0,0,0,.55-.09v.86a12.88,12.88,0,0,1-1.47.42,6.09,6.09,0,0,1-1.28.14,3.49,3.49,0,0,1-.84-.09,2.28,2.28,0,0,1-.65-.3,1.3,1.3,0,0,1-.51-.59,3.91,3.91,0,0,1-.15-1.32Z"/>
    <path class="cls-2" d="M592.7,13.36h.86V19a2.37,2.37,0,0,0,.4,1.54,1.63,1.63,0,0,0,1.31.47,3.41,3.41,0,0,0,.68-.07,6.72,6.72,0,0,0,.87-.21V14.93h-1.17v-.72l2.56-.85H599V21.2l.25.27.94.07v.81h-3.4v-1a8.91,8.91,0,0,1-1.66.89,3.86,3.86,0,0,1-1.36.27,2.24,2.24,0,0,1-1.86-.76,3.64,3.64,0,0,1-.61-2.32v-4.5h-1.17v-.72Z"/>
    <path class="cls-2" d="M601.07,22.35v-.81l.95-.07.26-.27V15H601v-.72l2.64-.84h.87l-.08,1.83c.31-.32.65-.64,1-.95a13.13,13.13,0,0,1,1.1-.87l.25,0h.16a2.32,2.32,0,0,1,.58.08,2.7,2.7,0,0,1,.61.23l-.23,2.49h-.94a1.38,1.38,0,0,0-.49-.5,1.45,1.45,0,0,0-.68-.15,1.61,1.61,0,0,0-.55.12,4.7,4.7,0,0,0-.73.38V21.2l.27.27,1.28.07v.81Z"/>
    <path class="cls-2" d="M614.29,21.32a7.91,7.91,0,0,1-1.66.9,4,4,0,0,1-1.43.29,2.31,2.31,0,0,1-1.7-.66,2.28,2.28,0,0,1-.66-1.68,2.24,2.24,0,0,1,1-2,15,15,0,0,1,4.51-1.49v-.54a2.08,2.08,0,0,0-.41-1.42,1.69,1.69,0,0,0-1.3-.45l-.41,0c-.14,0-.29,0-.46.08v1.69h-1.66a1,1,0,0,1-.62-.16.6.6,0,0,1-.2-.5c0-.57.37-1.06,1.13-1.47a5.63,5.63,0,0,1,2.78-.63,3.74,3.74,0,0,1,2.61.72,3.32,3.32,0,0,1,.75,2.47v4.66l.24.26,1,.09v.79h-3.2Zm0-.74V17.64a7.32,7.32,0,0,0-2.42.87,1.45,1.45,0,0,0-.65,1.26,1.34,1.34,0,0,0,.36,1,1.31,1.31,0,0,0,1,.37,2.69,2.69,0,0,0,.78-.14A6.12,6.12,0,0,0,614.29,20.58Z"/>
    <path class="cls-2" d="M618.33,22.35v-.79l1-.11.25-.25V10.61h-1.29V9.89L621,9.05h.79V21.16l.28.29,1,.11v.79Z"/>
    <path class="cls-2" d="M637.64,14.6a15.56,15.56,0,0,1,1.86-.91,4.17,4.17,0,0,1,1.34-.31,2.3,2.3,0,0,1,1.87.75,3.46,3.46,0,0,1,.62,2.24V21.2l.24.27.95.07v.81H640.1v-.81l.77-.07.25-.27V16.89a2.23,2.23,0,0,0-.4-1.49,1.59,1.59,0,0,0-1.26-.45,2.93,2.93,0,0,0-.69.08,7,7,0,0,0-.84.26V21.2l.23.27.82.07v.81h-4.25v-.81l.74-.07.25-.31V16.78a2,2,0,0,0-.39-1.39A1.51,1.51,0,0,0,634.1,15a3.19,3.19,0,0,0-.73.08,5.13,5.13,0,0,0-.78.22V21.2l.25.27.75.07v.81h-4.41v-.81l.92-.07.26-.27V15h-1.18v-.72l2.54-.84h.87v1.06a10.69,10.69,0,0,1,1.68-.83,3.63,3.63,0,0,1,1.27-.27,2.33,2.33,0,0,1,1.22.31A2.49,2.49,0,0,1,637.64,14.6Z"/>
    <path class="cls-2" d="M650.86,21.32a8,8,0,0,1-1.67.9,4,4,0,0,1-1.43.29,2.26,2.26,0,0,1-2.35-2.34,2.24,2.24,0,0,1,1-2,15,15,0,0,1,4.51-1.49v-.54a2.08,2.08,0,0,0-.41-1.42,1.69,1.69,0,0,0-1.3-.45l-.41,0a4.3,4.3,0,0,0-.45.08v1.69h-1.66A1,1,0,0,1,646,16a.63.63,0,0,1-.2-.5c0-.57.38-1.06,1.13-1.47a5.68,5.68,0,0,1,2.78-.63,3.74,3.74,0,0,1,2.61.72,3.32,3.32,0,0,1,.76,2.47v4.66l.23.26,1,.09v.79h-3.2Zm0-.74V17.64a7.3,7.3,0,0,0-2.43.87,1.48,1.48,0,0,0-.65,1.26,1.26,1.26,0,0,0,1.34,1.36,2.68,2.68,0,0,0,.77-.14A6.62,6.62,0,0,0,650.86,20.58Z"/>
    <path class="cls-2" d="M662.83,21.54a8.22,8.22,0,0,1-1.73.71,6,6,0,0,1-1.67.24,4.19,4.19,0,0,1-3.13-1.22,4.43,4.43,0,0,1-1.19-3.2,4.47,4.47,0,0,1,4.64-4.67,3.77,3.77,0,0,1,2.15.55,1.64,1.64,0,0,1,.82,1.41,1.16,1.16,0,0,1-.36.88,1.33,1.33,0,0,1-.93.35,2,2,0,0,1-.57-.08,1.93,1.93,0,0,1-.49-.26V14.34l-.26-.05h-.2a2,2,0,0,0-1.68.94,4,4,0,0,0-.68,2.41,3.9,3.9,0,0,0,.75,2.52,2.48,2.48,0,0,0,2,.92,4.08,4.08,0,0,0,1.21-.2,6.53,6.53,0,0,0,1.29-.61Z"/>
    <path class="cls-2" d="M666,9.05h.86v5.43a12.77,12.77,0,0,1,1.81-.84,3.88,3.88,0,0,1,1.27-.26,2.29,2.29,0,0,1,1.86.74,3.55,3.55,0,0,1,.61,2.25V21.2l.23.27,1,.07v.81h-4.41v-.81l.77-.07.26-.27V16.89a2.27,2.27,0,0,0-.39-1.47,1.49,1.49,0,0,0-1.23-.47,3.73,3.73,0,0,0-.77.08c-.28.05-.6.12-1,.22V21.2l.27.27.79.07v.81h-4.44v-.81l.92-.07.24-.27V10.6h-1.3V9.89Z"/>
    <path class="cls-2" d="M676.91,13.42h.87V21.2l.26.27,1,.07v.81h-4.72v-.81l1-.07.25-.27V15h-1.18v-.72Zm-.2-4.11a1.31,1.31,0,0,1,1,.38,1.27,1.27,0,0,1,.38.94,1.33,1.33,0,0,1-.38,1,1.24,1.24,0,0,1-.95.38,1.28,1.28,0,0,1-.94-.37,1.31,1.31,0,0,1-.38-.95,1.34,1.34,0,0,1,.38-1A1.2,1.2,0,0,1,676.71,9.31Z"/>
    <path class="cls-2" d="M679.84,22.35v-.81l.92-.07.26-.27V15h-1.23v-.72l2.59-.84h.87v1.06a11.59,11.59,0,0,1,1.78-.83,3.87,3.87,0,0,1,1.3-.27,2.23,2.23,0,0,1,1.83.74,3.45,3.45,0,0,1,.61,2.25V21.2l.24.27,1,.07v.81h-4.41v-.81l.78-.07.24-.27V16.89a2.33,2.33,0,0,0-.38-1.47A1.49,1.49,0,0,0,685,15a3.55,3.55,0,0,0-.75.08,9.13,9.13,0,0,0-1,.22V21.2l.25.27.79.07v.81Z"/>
    <path class="cls-2" d="M699.05,20.11v1.34a8.12,8.12,0,0,1-1.87.79,6.78,6.78,0,0,1-1.88.27,4.37,4.37,0,0,1-3.24-1.24A4.49,4.49,0,0,1,690.85,18a4.64,4.64,0,0,1,1.24-3.35,4.26,4.26,0,0,1,3.21-1.29,3.58,3.58,0,0,1,2.76,1.06,4.28,4.28,0,0,1,1,3v.34h-5.9v0a3.57,3.57,0,0,0,.77,2.42,2.72,2.72,0,0,0,2.13.88,4.48,4.48,0,0,0,1.46-.25A7,7,0,0,0,699.05,20.11Zm-2.38-3.31v-.19a3,3,0,0,0-.4-1.69,1.33,1.33,0,0,0-1.16-.58,1.62,1.62,0,0,0-1.33.65,3.16,3.16,0,0,0-.54,1.81Z"/>
    <path class="cls-2" d="M700.13,22.35v-.81l1-.07.26-.27V15H700v-.72l2.64-.84h.87l-.08,1.83c.32-.32.65-.64,1-.95a11.82,11.82,0,0,1,1.11-.87l.24,0H706a2.32,2.32,0,0,1,.58.08,2.7,2.7,0,0,1,.61.23l-.23,2.49H706a1.38,1.38,0,0,0-.49-.5,1.45,1.45,0,0,0-.68-.15,1.61,1.61,0,0,0-.55.12,4.7,4.7,0,0,0-.73.38V21.2l.27.27,1.28.07v.81Z"/>
    <path class="cls-2" d="M707.11,13.6h4.57v.78l-.91.1-.18.26,1.94,5.08,2-5.07-.16-.27-1-.1V13.6h3.45v.78l-1,.15L712.39,23a7.31,7.31,0,0,1-1.54,2.43,2.6,2.6,0,0,1-1.81.88,1.58,1.58,0,0,1-1.09-.4,1.18,1.18,0,0,1-.22-1.65,2,2,0,0,1,.69-.56L710,24.76a3.76,3.76,0,0,0,.72-.85,8.34,8.34,0,0,0,.68-1.34l-3.2-8-1.08-.15Z"/>
  </g>
</svg>
